<svg xmlns="http://www.w3.org/2000/svg" width="200" height="60" viewBox="0 0 200 60">
  <defs>
    <linearGradient id="logo-gradient" x1="0%" y1="0%" x2="100%" y2="100%">
      <stop offset="0%" stop-color="#4776E6" />
      <stop offset="100%" stop-color="#8E54E9" />
    </linearGradient>
  </defs>
  <g fill="none" fill-rule="evenodd">
    <path fill="url(#logo-gradient)" d="M40,10 C51.0457,10 60,18.9543 60,30 C60,41.0457 51.0457,50 40,50 C28.9543,50 20,41.0457 20,30 C20,18.9543 28.9543,10 40,10 Z M40,18 C33.3726,18 28,23.3726 28,30 C28,36.6274 33.3726,42 40,42 C46.6274,42 52,36.6274 52,30 C52,23.3726 46.6274,18 40,18 Z" />
    <path fill="url(#logo-gradient)" d="M40,15 C42.7614,15 45,17.2386 45,20 L45,40 C45,42.7614 42.7614,45 40,45 C37.2386,45 35,42.7614 35,40 L35,20 C35,17.2386 37.2386,15 40,15 Z" />
    <path fill="#333" d="M75,20 L75,40 L80,40 L80,30 L90,30 L90,25 L80,25 L80,25 L80,20 L75,20 Z M95,20 L95,40 L100,40 L100,32.5 L105,37.5 L110,32.5 L110,40 L115,40 L115,20 L110,20 L105,25 L100,20 L95,20 Z M125,20 L120,40 L125,40 L126,35 L134,35 L135,40 L140,40 L135,20 L125,20 Z M127.5,30 L130,22.5 L132.5,30 L127.5,30 Z M145,20 L145,40 L150,40 L150,30 L160,30 L160,25 L150,25 L150,25 L150,20 L145,20 Z M165,20 L165,40 L180,40 L180,35 L170,35 L170,32.5 L175,32.5 L175,27.5 L170,27.5 L170,25 L180,25 L180,20 L165,20 Z" />
  </g>
</svg>
