<?xml version="1.0" encoding="UTF-8" standalone="no"?>
<svg width="1440" height="320" viewBox="0 0 1440 320" xmlns="http://www.w3.org/2000/svg">
  <defs>
    <linearGradient id="wave-gradient" x1="0%" y1="0%" x2="100%" y2="100%">
      <stop offset="0%" stop-color="#7986cb" />
      <stop offset="50%" stop-color="#3f51b5" />
      <stop offset="100%" stop-color="#303f9f" />
    </linearGradient>
  </defs>
  
  <path fill="url(#wave-gradient)" d="M0,160L48,176C96,192,192,224,288,240C384,256,480,256,576,224C672,192,768,128,864,101.3C960,75,1056,85,1152,96C1248,107,1344,117,1392,122.7L1440,128L1440,320L1392,320C1344,320,1248,320,1152,320C1056,320,960,320,864,320C768,320,672,320,576,320C480,320,384,320,288,320C192,320,96,320,48,320L0,320Z"></path>
</svg>