<svg xmlns="http://www.w3.org/2000/svg" width="1440" height="320" viewBox="0 0 1440 320" preserveAspectRatio="none">
  <path fill="#4776E6" fill-opacity="0.1" d="M0,192L48,176C96,160,192,128,288,133.3C384,139,480,181,576,197.3C672,213,768,203,864,197.3C960,192,1056,192,1152,176C1248,160,1344,128,1392,112L1440,96L1440,320L1392,320C1344,320,1248,320,1152,320C1056,320,960,320,864,320C768,320,672,320,576,320C480,320,384,320,288,320C192,320,96,320,48,320L0,320Z"></path>
  <path fill="#8E54E9" fill-opacity="0.1" d="M0,96L48,128C96,160,192,224,288,229.3C384,235,480,181,576,144C672,107,768,85,864,90.7C960,96,1056,128,1152,154.7C1248,181,1344,203,1392,213.3L1440,224L1440,320L1392,320C1344,320,1248,320,1152,320C1056,320,960,320,864,320C768,320,672,320,576,320C480,320,384,320,288,320C192,320,96,320,48,320L0,320Z"></path>
</svg>
