<?xml version="1.0" encoding="UTF-8" standalone="no"?>
<svg width="200" height="200" viewBox="0 0 200 200" xmlns="http://www.w3.org/2000/svg">
  <defs>
    <linearGradient id="face-gradient" x1="0%" y1="0%" x2="100%" y2="100%">
      <stop offset="0%" stop-color="#ffe0cc" />
      <stop offset="100%" stop-color="#ffbf9b" />
    </linearGradient>
    <linearGradient id="hair-gradient" x1="0%" y1="0%" x2="100%" y2="100%">
      <stop offset="0%" stop-color="#8B4513" />
      <stop offset="100%" stop-color="#603311" />
    </linearGradient>
    <linearGradient id="lip-gradient" x1="0%" y1="0%" x2="100%" y2="100%">
      <stop offset="0%" stop-color="#e57373" />
      <stop offset="100%" stop-color="#c62828" />
    </linearGradient>
  </defs>
  
  <!-- Background -->
  <rect width="200" height="200" fill="#f5f5f5" rx="10" ry="10" />
  
  <!-- Hair -->
  <path d="M 40 85 C 40 40, 160 40, 160 85 L 160 110 C 160 40, 40 40, 40 110 L 40 85" fill="url(#hair-gradient)" />
  
  <!-- Face -->
  <ellipse cx="100" cy="100" rx="55" ry="65" fill="url(#face-gradient)" />
  
  <!-- Eyes -->
  <ellipse cx="75" cy="90" rx="8" ry="5" fill="#593e1a" />
  <ellipse cx="125" cy="90" rx="8" ry="5" fill="#593e1a" />
  
  <!-- Eyebrows -->
  <path d="M 67 80 C 70 77, 85 77, 88 82" stroke="#593e1a" stroke-width="2" fill="none" />
  <path d="M 117 82 C 120 77, 135 77, 138 80" stroke="#593e1a" stroke-width="2" fill="none" />
  
  <!-- Nose -->
  <path d="M 98 95 C 100 102, 103 102, 105 95" stroke="#e0b296" stroke-width="2" fill="none" />
  
  <!-- Lips -->
  <path d="M 85 120 C 95 127, 105 127, 115 120" stroke="#c62828" stroke-width="2" fill="url(#lip-gradient)" />
  
  <!-- Earrings -->
  <circle cx="45" cy="100" r="3" fill="#f9a825" />
  <circle cx="155" cy="100" r="3" fill="#f9a825" />
  
  <!-- Neck -->
  <path d="M 80 155 L 80 175 L 120 175 L 120 155" fill="#ffbf9b" />
  
  <!-- Clothing hint (top of blouse) -->
  <path d="M 60 175 L 140 175 L 150 200 L 50 200" fill="#8c9eff" />
</svg>