<?xml version="1.0" encoding="UTF-8" standalone="no"?>
<svg width="200" height="200" viewBox="0 0 200 200" xmlns="http://www.w3.org/2000/svg">
  <defs>
    <linearGradient id="face-gradient" x1="0%" y1="0%" x2="100%" y2="100%">
      <stop offset="0%" stop-color="#f8d5b2" />
      <stop offset="100%" stop-color="#e6ba91" />
    </linearGradient>
    <linearGradient id="hair-gradient" x1="0%" y1="0%" x2="100%" y2="100%">
      <stop offset="0%" stop-color="#333333" />
      <stop offset="100%" stop-color="#222222" />
    </linearGradient>
    <linearGradient id="lip-gradient" x1="0%" y1="0%" x2="100%" y2="100%">
      <stop offset="0%" stop-color="#d27d7d" />
      <stop offset="100%" stop-color="#a83232" />
    </linearGradient>
    <linearGradient id="suit-gradient" x1="0%" y1="0%" x2="100%" y2="100%">
      <stop offset="0%" stop-color="#2c3e50" />
      <stop offset="100%" stop-color="#1a2530" />
    </linearGradient>
  </defs>
  
  <!-- Background -->
  <rect width="200" height="200" fill="#f5f5f5" rx="10" ry="10" />
  
  <!-- Hair -->
  <path d="M 40 85 C 40 40, 160 40, 160 85 L 160 90 C 160 40, 40 40, 40 90 L 40 85" fill="url(#hair-gradient)" />
  
  <!-- Face -->
  <ellipse cx="100" cy="105" rx="55" ry="65" fill="url(#face-gradient)" />
  
  <!-- Eyes -->
  <ellipse cx="75" cy="95" rx="8" ry="5" fill="#2c3e50" />
  <ellipse cx="125" cy="95" rx="8" ry="5" fill="#2c3e50" />
  
  <!-- Eyebrows -->
  <path d="M 62 85 C 70 82, 85 82, 88 87" stroke="#333333" stroke-width="3" fill="none" />
  <path d="M 112 87 C 115 82, 130 82, 138 85" stroke="#333333" stroke-width="3" fill="none" />
  
  <!-- Nose -->
  <path d="M 97 105 C 100 112, 105 112, 108 105" stroke="#d1a689" stroke-width="2" fill="none" />
  
  <!-- Mouth -->
  <path d="M 85 125 C 95 130, 105 130, 115 125" stroke="#a83232" stroke-width="1" fill="url(#lip-gradient)" />
  
  <!-- Ears -->
  <ellipse cx="45" cy="100" rx="5" ry="10" fill="#f0c8a0" />
  <ellipse cx="155" cy="100" rx="5" ry="10" fill="#f0c8a0" />
  
  <!-- Neck -->
  <path d="M 85 160 L 85 180 L 115 180 L 115 160" fill="#f0c8a0" />
  
  <!-- Facial Hair (5 o'clock shadow) -->
  <path d="M 70 130 C 90 145, 110 145, 130 130" stroke="#555555" stroke-width="2" stroke-opacity="0.3" fill="none" />
  
  <!-- Suit Collar -->
  <path d="M 70 180 L 70 200 L 130 200 L 130 180" fill="url(#suit-gradient)" />
  <path d="M 85 180 L 75 200" stroke="white" stroke-width="2" />
  <path d="M 115 180 L 125 200" stroke="white" stroke-width="2" />
</svg>